[Header]
FileType HTR
DataType HTRS
FileVersion 1
NumSegments 64
NumFrames 3
DataFrameRate 30
EulerRotationOrder ZYX
CalibrationUnits mm
RotationUnits Degrees
GlobalAxisofGravity Y
BoneLengthAxis Y
ScaleFactor 1.0
[SegmentNames&Hierarchy]
Hips	GLOBAL
Spine	Hips
Spine1	Spine
Spine2	Spine1
Neck	Spine2
Head	Neck
LeftEye	Head
RightEye	Head
LeftShoulder	Spine2
LeftArm	LeftShoulder
LeftForeArm	LeftArm
LeftHand	LeftForeArm
LeftHandThumb1	LeftHand
LeftHandThumb2	LeftHandThumb1
LeftHandThumb3	LeftHandThumb2
LeftHandThumb4	LeftHandThumb3
LeftHandIndex1	LeftHand
LeftHandIndex2	LeftHandIndex1
LeftHandIndex3	LeftHandIndex2
LeftHandIndex4	LeftHandIndex3
LeftHandMiddle1	LeftHand
LeftHandMiddle2	LeftHandMiddle1
LeftHandMiddle3	LeftHandMiddle2
LeftHandMiddle4	LeftHandMiddle3
LeftHandRing1	LeftHand
LeftHandRing2	LeftHandRing1
LeftHandRing3	LeftHandRing2
LeftHandRing4	LeftHandRing3
LeftHandPinky1	LeftHand
LeftHandPinky2	LeftHandPinky1
LeftHandPinky3	LeftHandPinky2
LeftHandPinky4	LeftHandPinky3
RightShoulder	Spine2
RightArm	RightShoulder
RightForeArm	RightArm
RightHand	RightForeArm
RightHandPinky1	RightHand
RightHandPinky2	RightHandPinky1
RightHandPinky3	RightHandPinky2
RightHandPinky4	RightHandPinky3
RightHandRing1	RightHand
RightHandRing2	RightHandRing1
RightHandRing3	RightHandRing2
RightHandRing4	RightHandRing3
RightHandMiddle1	RightHand
RightHandMiddle2	RightHandMiddle1
RightHandMiddle3	RightHandMiddle2
RightHandMiddle4	RightHandMiddle3
RightHandIndex1	RightHand
RightHandIndex2	RightHandIndex1
RightHandIndex3	RightHandIndex2
RightHandIndex4	RightHandIndex3
RightHandThumb1	RightHand
RightHandThumb2	RightHandThumb1
RightHandThumb3	RightHandThumb2
RightHandThumb4	RightHandThumb3
LeftUpLeg	Hips
LeftLeg	LeftUpLeg
LeftFoot	LeftLeg
LeftToeBase	LeftFoot
RightUpLeg	Hips
RightLeg	RightUpLeg
RightFoot	RightLeg
RightToeBase	RightFoot
[BasePosition]
Hips	0	0	0	0	0	0	1
Spine	0	0	0	0	0	0	1
Spine1	0	0	0	0	0	0	1
Spine2	0	0	0	0	0	0	1
Neck	0	0	0	0	0	0	1
Head	0	0	0	0	0	0	1
LeftEye	0	0	0	0	0	0	1
RightEye	0	0	0	0	0	0	1
LeftShoulder	0	0	0	0	0	0	1
LeftArm	0	0	0	0	0	0	1
LeftForeArm	0	0	0	0	0	0	1
LeftHand	0	0	0	0	0	0	1
LeftHandThumb1	0	0	0	0	0	0	1
LeftHandThumb2	0	0	0	0	0	0	1
LeftHandThumb3	0	0	0	0	0	0	1
LeftHandThumb4	0	0	0	0	0	0	1
LeftHandIndex1	0	0	0	0	0	0	1
LeftHandIndex2	0	0	0	0	0	0	1
LeftHandIndex3	0	0	0	0	0	0	1
LeftHandIndex4	0	0	0	0	0	0	1
LeftHandMiddle1	0	0	0	0	0	0	1
LeftHandMiddle2	0	0	0	0	0	0	1
LeftHandMiddle3	0	0	0	0	0	0	1
LeftHandMiddle4	0	0	0	0	0	0	1
LeftHandRing1	0	0	0	0	0	0	1
LeftHandRing2	0	0	0	0	0	0	1
LeftHandRing3	0	0	0	0	0	0	1
LeftHandRing4	0	0	0	0	0	0	1
LeftHandPinky1	0	0	0	0	0	0	1
LeftHandPinky2	0	0	0	0	0	0	1
LeftHandPinky3	0	0	0	0	0	0	1
LeftHandPinky4	0	0	0	0	0	0	1
RightShoulder	0	0	0	0	0	0	1
RightArm	0	0	0	0	0	0	1
RightForeArm	0	0	0	0	0	0	1
RightHand	0	0	0	0	0	0	1
RightHandPinky1	0	0	0	0	0	0	1
RightHandPinky2	0	0	0	0	0	0	1
RightHandPinky3	0	0	0	0	0	0	1
RightHandPinky4	0	0	0	0	0	0	1
RightHandRing1	0	0	0	0	0	0	1
RightHandRing2	0	0	0	0	0	0	1
RightHandRing3	0	0	0	0	0	0	1
RightHandRing4	0	0	0	0	0	0	1
RightHandMiddle1	0	0	0	0	0	0	1
RightHandMiddle2	0	0	0	0	0	0	1
RightHandMiddle3	0	0	0	0	0	0	1
RightHandMiddle4	0	0	0	0	0	0	1
RightHandIndex1	0	0	0	0	0	0	1
RightHandIndex2	0	0	0	0	0	0	1
RightHandIndex3	0	0	0	0	0	0	1
RightHandIndex4	0	0	0	0	0	0	1
RightHandThumb1	0	0	0	0	0	0	1
RightHandThumb2	0	0	0	0	0	0	1
RightHandThumb3	0	0	0	0	0	0	1
RightHandThumb4	0	0	0	0	0	0	1
LeftUpLeg	0	0	0	0	0	0	1
LeftLeg	0	0	0	0	0	0	1
LeftFoot	0	0	0	0	0	0	1
LeftToeBase	0	0	0	0	0	0	1
RightUpLeg	0	0	0	0	0	0	1
RightLeg	0	0	0	0	0	0	1
RightFoot	0	0	0	0	0	0	1
RightToeBase	0	0	0	0	0	0	1
[Hips]
18	988.3184814	1007.84436	7.436048985	5.707922459	66.87252808	0.8795571327	1.0
19	1044.336548	1006.727905	10.1762886	5.13744688	68.96543121	-0.2665358186	1.0
20	1101.62793	998.4625854	13.0672369	6.683725834	71.78412628	0.8675349951	1.0
[Spine]
18	0	101.8159943	1.315000057	5.824994564	-7.884603024	-0.1796877235	1.0
19	0	101.8159943	1.315000057	5.546129704	-9.464829445	0.4302458763	1.0
20	0	101.8159943	1.315000057	5.190056801	-11.77493477	0.3572501242	1.0
[Spine1]
18	0	100.8349991	-10.00800037	4.131312847	-4.904593468	0.2412206531	1.0
19	0	100.8349991	-10.00800037	3.91711545	-5.321111202	0.5960110426	1.0
20	0	100.8349991	-10.00800037	3.618001223	-5.81682539	0.6598992348	1.0
[Spine2]
18	0	91	-13.73399925	4.100779057	-4.93375206	0.2236689776	1.0
19	0	91	-13.73399925	3.868807554	-5.359826565	0.5886880755	1.0
20	0	91	-13.73399925	3.549084663	-5.862437725	0.6739834547	1.0
[Neck]
18	0	166.7169952	-25.16200066	4.977620125	-5.417992115	-2.360131264	1.0
19	0	166.7169952	-25.16200066	4.979515553	-5.431931973	-2.19462204	1.0
20	0	166.7169952	-25.16200066	4.867825985	-5.476409912	-1.920369744	1.0
[Head]
18	0	96.17900085	16.84999847	-10.99588108	-33.88053894	12.13940525	1.0
19	0	96.17900085	16.84999847	-10.91020679	-33.82994461	12.01605892	1.0
20	0	96.17900085	16.84999847	-11.1189146	-33.86469269	12.53200436	1.0
[LeftEye]
18	30.6760006	64.09500122	92.83599854	0	0	0	1.0
19	30.6760006	64.09500122	92.83599854	0	0	0	1.0
20	30.6760006	64.09500122	92.83599854	0	0	0	1.0
[RightEye]
18	-30.6760006	64.09500122	92.83499908	0	0	0	1.0
19	-30.6760006	64.09500122	92.83499908	0	0	0	1.0
20	-30.6760006	64.09500122	92.83499908	0	0	0	1.0
[LeftShoulder]
18	45.70400238	109.4599991	-26.28000069	-1.794533372	-7.191158772	-9.418707848	1.0
19	45.70400238	109.4599991	-26.28000069	-2.368587971	-7.758949757	-9.161417007	1.0
20	45.70400238	109.4599991	-26.28000069	-2.774118662	-8.457920074	-8.971838951	1.0
[LeftArm]
18	105.923996	-5.24600029	-22.32099915	26.69308853	-17.58535194	-59.72925186	1.0
19	105.923996	-5.24600029	-22.32099915	26.78914642	-19.13891792	-58.62469101	1.0
20	105.923996	-5.24600029	-22.32099915	27.92372704	-20.3826046	-57.07017136	1.0
[LeftForeArm]
18	278.414978	-0.0009999999311	0	2.72348575e-06	-13.51001549	-0.0002169947111	1.0
19	278.414978	-0.0009999999311	0	9.574213209e-07	-16.09939575	-0.0002045980509	1.0
20	278.414978	-0.0009999999311	0	-2.561859901e-06	-18.70750427	-0.0001946554839	1.0
[LeftHand]
18	283.2879944	0	0	4.812820911	1.876797318	22.24462318	1.0
19	283.2879944	0	0	2.709802866	1.475673437	23.08067131	1.0
20	283.2879944	0	0	0.6906988621	1.527619362	24.02758598	1.0
[LeftHandThumb1]
18	24.6609993	-15.75	26.8239994	0.9464570284	1.151123047	0.2541034818	1.0
19	24.6609993	-15.75	26.8239994	0.9464570284	1.151123047	0.2541034818	1.0
20	24.6609993	-15.75	26.8239994	0.9464570284	1.151123047	0.2541034818	1.0
[LeftHandThumb2]
18	32.29800034	-18.64699936	18.64699936	15.3992157	3.5765028	18.89783859	1.0
19	32.29800034	-18.64699936	18.64699936	13.93301487	3.771726131	19.1513958	1.0
20	32.29800034	-18.64699936	18.64699936	12.10800934	3.69620657	19.1172123	1.0
[LeftHandThumb3]
18	26.52600098	-15.31499958	15.31499958	-2.87812376	-12.54516315	22.41558838	1.0
19	26.52600098	-15.31499958	15.31499958	-2.504747629	-11.63715744	22.18986893	1.0
20	26.52600098	-15.31499958	15.31499958	-2.295152903	-11.12818718	22.08252716	1.0
[LeftHandThumb4]
18	19.54599953	-11.28499985	11.28499985	0	0	0	1.0
19	19.54599953	-11.28499985	11.28499985	0	0	0	1.0
20	19.54599953	-11.28499985	11.28499985	0	0	0	1.0
[LeftHandIndex1]
18	91.09299469	-5.170999527	22.60099792	-1.425173759	-1.502017975	-24.65933609	1.0
19	91.09299469	-5.170999527	22.60099792	-1.371261001	-1.895344734	-23.89836121	1.0
20	91.09299469	-5.170999527	22.60099792	-1.346401453	-2.058594465	-23.63112068	1.0
[LeftHandIndex2]
18	36.76399994	0	0	-0.128059119	1.216719985	-12.01587296	1.0
19	36.76399994	0	0	-0.1276347935	1.214729548	-11.99591255	1.0
20	36.76399994	0	0	-0.1274191439	1.213728428	-11.98586845	1.0
[LeftHandIndex3]
18	28.83100128	0	0	-0.1332455575	1.240844488	-12.25783157	1.0
19	28.83100128	0	0	-0.1328205466	1.238883495	-12.23816395	1.0
20	28.83100128	0	0	-0.1326168478	1.237938285	-12.22868061	1.0
[LeftHandIndex4]
18	23.92700005	0	0	0	0	0	1.0
19	23.92700005	0	0	0	0	0	1.0
20	23.92700005	0	0	0	0	0	1.0
[LeftHandMiddle1]
18	95.33399963	0	0	-2.000339746	3.423898697	-31.1115818	1.0
19	95.33399963	0	0	-1.954440951	3.089759111	-30.59668732	1.0
20	95.33399963	0	0	-1.924804211	2.880468607	-30.26231003	1.0
[LeftHandMiddle2]
18	36.98199844	0	0	-0.3028771579	1.85676837	-18.52745628	1.0
19	36.98199844	0	0	-0.3017628789	1.853440523	-18.49303627	1.0
20	36.98199844	0	0	-0.3011288047	1.85154295	-18.47340012	1.0
[LeftHandMiddle3]
18	29.50900078	0	0	-0.1090505123	1.12373805	-11.08523941	1.0
19	29.50900078	0	0	-0.1083757207	1.120291233	-11.05079746	1.0
20	29.50900078	0	0	-0.10799101	1.1183182	-11.03108501	1.0
[LeftHandMiddle4]
18	28.3390007	0	0	0	0	0	1.0
19	28.3390007	0	0	0	0	0	1.0
20	28.3390007	0	0	0	0	0	1.0
[LeftHandRing1]
18	91.04499817	-0.4390000105	-18.65100098	-2.19230938	7.603168011	-33.27240372	1.0
19	91.04499817	-0.4390000105	-18.65100098	-2.136199474	7.483295918	-32.65081406	1.0
20	91.04499817	-0.4390000105	-18.65100098	-2.09463191	7.355000496	-32.18419266	1.0
[LeftHandRing2]
18	31.54000092	0	0	-0.4745897353	2.306381226	-23.25218391	1.0
19	31.54000092	0	0	-0.4759244025	2.309487581	-23.28538322	1.0
20	31.54000092	0	0	-0.4758030772	2.309207201	-23.28237915	1.0
[LeftHandRing3]
18	29.37700081	0	0	-0.3418842554	1.969281077	-19.69595528	1.0
19	29.37700081	0	0	-0.3430580795	1.972554207	-19.73007202	1.0
20	29.37700081	0	0	-0.3429789543	1.972330689	-19.72773933	1.0
[LeftHandRing4]
18	26.47500038	0	0	0	0	0	1.0
19	26.47500038	0	0	0	0	0	1.0
20	26.47500038	0	0	0	0	0	1.0
[LeftHandPinky1]
18	80.77799988	-4.887000084	-38.06099701	-2.499582529	5.415692806	-36.49962234	1.0
19	80.77799988	-4.887000084	-38.06099701	-2.461457253	5.041198254	-36.15849304	1.0
20	80.77799988	-4.887000084	-38.06099701	-2.440747976	4.561788559	-35.93845367	1.0
[LeftHandPinky2]
18	36	0	0	-0.5093807578	2.385658979	-24.1021347	1.0
19	36	0	0	-0.5102898479	2.38769269	-24.12399101	1.0
20	36	0	0	-0.5080239773	2.382629395	-24.06949997	1.0
[LeftHandPinky3]
18	21.14200211	0	0	-0.2253998071	1.607303143	-15.96455574	1.0
19	21.14200211	0	0	-0.2260755599	1.609669924	-15.98870564	1.0
20	21.14200211	0	0	-0.2245393097	1.604291677	-15.93384647	1.0
[LeftHandPinky4]
18	19.75699997	0	0	0	0	0	1.0
19	19.75699997	0	0	0	0	0	1.0
20	19.75699997	0	0	0	0	0	1.0
[RightShoulder]
18	-45.70000076	109.4620056	-26.28000069	1.07140255	-2.718144894	7.462495804	1.0
19	-45.70000076	109.4620056	-26.28000069	1.22035706	-4.101051807	7.38963747	1.0
20	-45.70000076	109.4620056	-26.28000069	1.32164526	-5.388631344	7.389036179	1.0
[RightArm]
18	-105.9280014	-5.248000145	-22.32099915	17.78373337	8.371482849	68.49304962	1.0
19	-105.9280014	-5.248000145	-22.32099915	17.70047569	5.800260067	67.32137299	1.0
20	-105.9280014	-5.248000145	-22.32099915	17.31518745	2.468412399	66.37451172	1.0
[RightForeArm]
18	-278.414978	0	0	5.830044302e-06	28.02042007	3.659479489e-06	1.0
19	-278.414978	0	0	-5.103406693e-06	25.39764977	8.928969692e-06	1.0
20	-278.414978	0	0	-1.2062731e-05	23.87203979	2.003693453e-06	1.0
[RightHand]
18	-283.2879944	0	0.0009999999311	5.770168304	12.75927258	-3.857146502	1.0
19	-283.2879944	0	0.0009999999311	5.941277504	8.565347672	-3.109356165	1.0
20	-283.2879944	0	0.0009999999311	6.905374527	4.331626415	-2.329692602	1.0
[RightHandPinky1]
18	-80.76699829	-4.885000229	-38.06000137	-1.561308384	-3.707816601	27.66763687	1.0
19	-80.76699829	-4.885000229	-38.06000137	-1.574590445	-3.359781981	27.85165977	1.0
20	-80.76699829	-4.885000229	-38.06000137	-1.60611546	-2.848872662	28.28731155	1.0
[RightHandPinky2]
18	-36	0	0.0009999999311	-0.3650336862	-1.803699493	22.89998817	1.0
19	-36	0	0.0009999999311	-0.3653535843	-1.804456353	22.91003609	1.0
20	-36	0	0.0009999999311	-0.365998894	-1.805974722	22.93034935	1.0
[RightHandPinky3]
18	-21.14200211	0	0	-0.4179390073	-1.924211144	24.50662613	1.0
19	-21.14200211	0	0	-0.4183540642	-1.925108552	24.51898766	1.0
20	-21.14200211	0	0	-0.4192867577	-1.927168965	24.54709816	1.0
[RightHandPinky4]
18	-19.75699997	0	0	0	0	0	1.0
19	-19.75699997	0	0	0	0	0	1.0
20	-19.75699997	0	0	0	0	0	1.0
[RightHandRing1]
18	-91.03599548	-0.4390000105	-18.65100098	-1.840698242	-3.007711172	31.6132679	1.0
19	-91.03599548	-0.4390000105	-18.65100098	-1.877262592	-2.87284565	32.09074402	1.0
20	-91.03599548	-0.4390000105	-18.65100098	-1.91860795	-2.701067924	32.6299324	1.0
[RightHandRing2]
18	-31.54000092	0	0	-0.6983013749	-2.447189569	31.84757996	1.0
19	-31.54000092	0	0	-0.6971825361	-2.445405483	31.82141685	1.0
20	-31.54000092	0	0	-0.6950158477	-2.441910505	31.77055168	1.0
[RightHandRing3]
18	-29.37700081	0	0	-0.7761124372	-2.568106174	33.62593842	1.0
19	-29.37700081	0	0	-0.7749171257	-2.566321611	33.59938049	1.0
20	-29.37700081	0	0	-0.7726027369	-2.562871695	33.54775238	1.0
[RightHandRing4]
18	-26.47500038	0	0	0	0	0	1.0
19	-26.47500038	0	0	0	0	0	1.0
20	-26.47500038	0	0	0	0	0	1.0
[RightHandMiddle1]
18	-95.32500458	0	0	-2.053019047	-1.308406472	34.38484955	1.0
19	-95.32500458	0	0	-2.089755297	-1.343208075	34.84747696	1.0
20	-95.32500458	0	0	-2.144196987	-1.38303268	35.53153992	1.0
[RightHandMiddle2]
18	-36.98199844	0	0	-0.4603413045	-2.014583111	25.74052811	1.0
19	-36.98199844	0	0	-0.4632637501	-2.0206213	25.82339859	1.0
20	-36.98199844	0	0	-0.4656990767	-2.025649071	25.89239883	1.0
[RightHandMiddle3]
18	-29.50900078	0	0	-0.324185878	-1.705737233	21.54548264	1.0
19	-29.50900078	0	0	-0.3266773522	-1.712026596	21.62923813	1.0
20	-29.50900078	0	0	-0.3287570775	-1.717263341	21.69896126	1.0
[RightHandMiddle4]
18	-28.3390007	0	0.0009999999311	0	0	0	1.0
19	-28.3390007	0	0.0009999999311	0	0	0	1.0
20	-28.3390007	0	0.0009999999311	0	0	0	1.0
[RightHandIndex1]
18	-91.08300018	-5.167999744	22.60099792	-0.8204177618	6.497801304	19.12223816	1.0
19	-91.08300018	-5.167999744	22.60099792	-0.8968064189	6.414395809	20.28445816	1.0
20	-91.08300018	-5.167999744	22.60099792	-1.011831045	6.408324242	21.85281372	1.0
[RightHandIndex2]
18	-36.76399994	0	0	-0.5794065595	-2.244684458	28.94378281	1.0
19	-36.76399994	0	0	-0.5788568258	-2.24369812	28.92982483	1.0
20	-36.76399994	0	0	-0.5771699548	-2.240633249	28.88654327	1.0
[RightHandIndex3]
18	-28.83100128	0	0	-0.2407217473	-1.475023508	18.53718185	1.0
19	-28.83100128	0	0	-0.2403622866	-1.473942637	18.52308273	1.0
20	-28.83100128	0	0	-0.2392399609	-1.470586181	18.4793663	1.0
[RightHandIndex4]
18	-23.92700005	0	0	0	0	0	1.0
19	-23.92700005	0	0	0	0	0	1.0
20	-23.92700005	0	0	0	0	0	1.0
[RightHandThumb1]
18	-24.64799881	-15.72700024	26.82600021	30.15343666	21.14214134	-10.25145817	1.0
19	-24.64799881	-15.72700024	26.82600021	30.15343666	21.14214134	-10.25145817	1.0
20	-24.64799881	-15.72700024	26.82600021	30.15343666	21.14214134	-10.25145817	1.0
[RightHandThumb2]
18	-32.29800034	-18.64699936	18.64699936	9.840727806	-24.65410995	0.06029681861	1.0
19	-32.29800034	-18.64699936	18.64699936	10.57868481	-24.81968117	0.2781764567	1.0
20	-32.29800034	-18.64699936	18.64699936	11.4258976	-24.74100304	0.623532176	1.0
[RightHandThumb3]
18	-26.52600098	-15.31399918	15.31399918	-11.76481724	-13.86035633	-10.27804565	1.0
19	-26.52600098	-15.31399918	15.31399918	-11.78970528	-13.8031559	-10.29336262	1.0
20	-26.52600098	-15.31399918	15.31399918	-11.82742882	-13.71656704	-10.31720924	1.0
[RightHandThumb4]
18	-19.54599953	-11.28499985	11.28499985	0	0	0	1.0
19	-19.54599953	-11.28499985	11.28499985	0	0	0	1.0
20	-19.54599953	-11.28499985	11.28499985	0	0	0	1.0
[LeftUpLeg]
18	82.07800293	-67.51699829	-15.99599934	-14.82081032	5.816380978	-5.56195116	1.0
19	82.07800293	-67.51699829	-15.99599934	-10.4619236	6.105156898	-5.702206135	1.0
20	82.07800293	-67.51699829	-15.99599934	-6.54841423	6.902178288	-6.181271553	1.0
[LeftLeg]
18	0	-443.7049866	2.845999956	24.63090515	-1.708167315	-1.189946413	1.0
19	0	-443.7049866	2.845999956	21.99017715	-3.514653444	-1.933167458	1.0
20	0	-443.7049866	2.845999956	20.82614708	-5.818150997	-2.871500254	1.0
[LeftFoot]
18	0	-444.2789917	-29.8219986	-14.97894764	0.512577951	5.561511993	1.0
19	0	-444.2789917	-29.8219986	-16.94290733	0.4275230765	7.196521759	1.0
20	0	-444.2789917	-29.8219986	-19.82406044	-0.433652699	9.54485321	1.0
[LeftToeBase]
18	0	-87.28699493	107.1060028	-7.897783279	1.300657823e-05	-2.499868742e-06	1.0
19	0	-87.28699493	107.1060028	-7.450451374	1.119434273e-05	-2.968664376e-06	1.0
20	0	-87.28699493	107.1060028	-7.239380836	-2.245126961e-05	-1.894206036e-07	1.0
[RightUpLeg]
18	-82.07800293	-67.51699829	-15.99599934	-35.15907288	-0.9315697551	-1.627379179	1.0
19	-82.07800293	-67.51699829	-15.99599934	-36.45461273	-0.7456168532	1.20798707	1.0
20	-82.07800293	-67.51699829	-15.99599934	-36.71360397	-0.4916289449	2.128056049	1.0
[RightLeg]
18	0	-443.7049866	2.861999989	51.55269623	1.516432405	1.850670099	1.0
19	0	-443.7049866	2.861999989	37.62888718	0.7621554732	0.4105374813	1.0
20	0	-443.7049866	2.861999989	22.23558998	-0.03708993644	-0.1923229694	1.0
[RightFoot]
18	0	-444.2770081	-29.83799934	-3.479118824	0.06167372689	4.362047672	1.0
19	0	-444.2770081	-29.83799934	-4.209343433	0.07572169602	5.671171665	1.0
20	0	-444.2770081	-29.83799934	-4.229186058	0.09757035971	6.880311489	1.0
[RightToeBase]
18	0	-87.28699493	107.1060028	-7.373586655	-8.316142157e-06	-1.683919777e-06	1.0
19	0	-87.28699493	107.1060028	-6.842325211	-2.620304622e-05	2.280668241e-06	1.0
20	0	-87.28699493	107.1060028	-6.889474392	-2.7215101e-06	-4.150655514e-06	1.0
[EndOfFile]
